HIERARCHY
ROOT Hips
{
	OFFSET 0.000000 0.000000 0.000000
	CHANNELS 6 Xposition Yposition Zposition Xrotation Yrotation Zrotation
	JOINT LeftUpLeg_virtual
	{
		OFFSET 0.000000 0.000000 0.000000
		CHANNELS 3 Xrotation Yrotation Zrotation
		JOINT LeftUpLeg
		{
			OFFSET 10.205400 -3.823500 0.155100
			CHANNELS 3 Xrotation Yrotation Zrotation
			JOINT LeftLeg
			{
				OFFSET 0.708757 -12.982077 0.567790
				CHANNELS 3 Xrotation Yrotation Zrotation
				JOINT LeftFoot
				{
					OFFSET -0.708756 -10.717838 -2.184338
					CHANNELS 3 Xrotation Yrotation Zrotation
					JOINT LeftToeBase
					{
						OFFSET 0.108149 -7.191104 7.560241
						CHANNELS 3 Xrotation Yrotation Zrotation
						JOINT LeftToe_End
						{
							OFFSET 0.070230 0.081724 4.490308
							CHANNELS 3 Xrotation Yrotation Zrotation
							End Site
							{
								OFFSET 0 0 0
							}
						}
					}
				}
			}
		}
	}
	JOINT RightUpLeg_virtual
	{
		OFFSET 0.000000 0.000000 0.000000
		CHANNELS 3 Xrotation Yrotation Zrotation
		JOINT RightUpLeg
		{
			OFFSET -10.205400 -3.823500 0.005500
			CHANNELS 3 Xrotation Yrotation Zrotation
			JOINT RightLeg
			{
				OFFSET -0.708756 -12.982134 0.610632
				CHANNELS 3 Xrotation Yrotation Zrotation
				JOINT RightFoot
				{
					OFFSET 0.708754 -10.717769 -1.945823
					CHANNELS 3 Xrotation Yrotation Zrotation
					JOINT RightToeBase
					{
						OFFSET -0.108140 -7.191069 7.372968
						CHANNELS 3 Xrotation Yrotation Zrotation
						JOINT RightToe_End
						{
							OFFSET -0.070227 0.081735 4.479403
							CHANNELS 3 Xrotation Yrotation Zrotation
							End Site
							{
								OFFSET 0 0 0
							}
						}
					}
				}
			}
		}
	}
	JOINT Spine_virtual
	{
		OFFSET 0.000000 0.000000 0.000000
		CHANNELS 3 Xrotation Yrotation Zrotation
		JOINT Spine
		{
			OFFSET 0.000000 6.876099 0.125700
			CHANNELS 3 Xrotation Yrotation Zrotation
			JOINT Spine1
			{
				OFFSET 0.000000 5.730043 0.104720
				CHANNELS 3 Xrotation Yrotation Zrotation
				JOINT Spine1_split
				{
					OFFSET 0.000000 5.730043 0.104720
					CHANNELS 3 Xrotation Yrotation Zrotation
					JOINT Spine2
					{
						OFFSET 0.000000 5.730043 0.104720
						CHANNELS 3 Xrotation Yrotation Zrotation
						JOINT Neck_virtual
						{
							OFFSET 0.000000 0.000000 0.000000
							CHANNELS 3 Xrotation Yrotation Zrotation
							JOINT Neck
							{
								OFFSET 0.000000 10.314075 0.188496
								CHANNELS 3 Xrotation Yrotation Zrotation
								JOINT Head
								{
									OFFSET 0.000000 7.643700 -2.377400
									CHANNELS 3 Xrotation Yrotation Zrotation
									JOINT HeadTop_End
									{
										OFFSET 0.000000 43.788605 -13.619600
										CHANNELS 3 Xrotation Yrotation Zrotation
										End Site
										{
											OFFSET 0 0 0
										}
									}
								}
							}
						}
						JOINT LeftShoulder_virtual
						{
							OFFSET 0.000000 0.000000 0.000000
							CHANNELS 3 Xrotation Yrotation Zrotation
							JOINT LeftShoulder
							{
								OFFSET 2.196100 4.412489 0.087492
								CHANNELS 3 Xrotation Yrotation Zrotation
								JOINT LeftShoulder_split
								{
									OFFSET 2.196100 4.412489 0.087492
									CHANNELS 3 Xrotation Yrotation Zrotation
									JOINT LeftArm
									{
										OFFSET 8.771219 -2.981674 -0.026999
										CHANNELS 3 Xrotation Yrotation Zrotation
										JOINT LeftForeArm
										{
											OFFSET 8.512804 0.000000 -0.000000
											CHANNELS 3 Xrotation Yrotation Zrotation
											JOINT LeftHand
											{
												OFFSET 18.484802 0.000000 -0.000000
												CHANNELS 3 Xrotation Yrotation Zrotation
												End Site
												{
													OFFSET 0 0 0
												}
											}
										}
									}
								}
							}
						}
						JOINT RightShoulder_virtual
						{
							OFFSET 0.000000 0.000000 0.000000
							CHANNELS 3 Xrotation Yrotation Zrotation
							JOINT RightShoulder
							{
								OFFSET -2.196100 4.412496 0.070690
								CHANNELS 3 Xrotation Yrotation Zrotation
								JOINT RightShoulder_split
								{
									OFFSET -2.196100 4.412496 0.070690
									CHANNELS 3 Xrotation Yrotation Zrotation
									JOINT RightArm
									{
										OFFSET -8.771282 -2.981682 -0.094208
										CHANNELS 3 Xrotation Yrotation Zrotation
										JOINT RightForeArm
										{
											OFFSET -8.494598 0.000000 0.000000
											CHANNELS 3 Xrotation Yrotation Zrotation
											JOINT RightHand
											{
												OFFSET -18.483803 0.000000 0.000001
												CHANNELS 3 Xrotation Yrotation Zrotation
												End Site
												{
													OFFSET 0 0 0
												}
											}
										}
									}
								}
							}
						}
					}
				}
			}
		}
	}
}
MOTION
Frames: 6
Frame Time: 0.03333333
0.361648 45.610504 6.374707 0.000000 0.000000 0.000000 -88.497921 -5.339392 -0.896707 -6.253439 19.857016 15.295481 7.380363 4.090698 4.314346 12.609516 30.268776 -25.674413 -7.391832 0.444057 2.066726 0.000000 0.000000 0.000000 -90.689223 -3.282191 0.043895 -4.508235 -16.271372 -15.820931 16.048795 -0.799985 -7.592255 25.571817 -34.105969 34.971986 -12.593162 1.456366 -2.088967 0.000000 0.000000 0.000000 -87.974933 -6.244023 -2.835531 2.952714 -1.667638 0.555698 -2.533869 -1.399743 0.566367 0.988043 2.334311 -0.224300 0.000000 0.000000 0.000000 -2.120573 -1.712747 0.409306 -10.835188 -3.016593 -0.911315 15.506136 -0.342213 3.545548 0.000000 0.000000 0.000000 -0.463738 -1.668099 0.756756 0.717283 1.462876 -5.525416 -0.665034 0.496988 -2.710928 37.876298 -28.009981 -55.023973 -147.673826 -88.759825 -146.538635 0.000000 0.000000 0.000000 -0.453093 -1.378283 0.032452 0.582746 -3.180074 13.284606 2.961038 4.655295 -0.620631 28.462039 23.975665 47.395209 178.487323 79.308960 -179.868756 0.000000 0.000000 0.000000 
0.263172 45.662979 6.556664 0.000000 0.000000 0.000000 -88.495687 -4.970089 -0.649718 -6.660516 19.984247 15.592499 7.328492 4.150682 4.170595 12.934386 30.061896 -25.930619 -7.453268 0.443189 2.026947 0.000000 0.000000 0.000000 -90.201903 -2.985509 0.170078 -4.436344 -15.743514 -15.869137 15.807243 -0.874331 -7.557452 26.023745 -34.162718 34.992876 -12.474912 1.452050 -2.036568 0.000000 0.000000 0.000000 -87.839463 -6.331678 -2.989759 2.728862 -1.761467 0.539138 -2.627146 -1.454872 0.456172 0.775060 1.935812 -0.370465 0.000000 0.000000 0.000000 -2.252524 -1.729883 0.315845 -10.858431 -2.864920 -0.913469 15.669120 -0.488421 3.343260 0.000000 0.000000 0.000000 -0.463697 -1.713166 0.654623 0.752761 0.900900 -5.238798 -0.194235 0.395978 -2.404531 37.699916 -28.215658 -55.044979 -127.300260 -88.882850 -126.077642 0.000000 0.000000 0.000000 -0.516975 -1.400966 -0.062766 0.611280 -3.558878 13.245333 2.799413 4.440638 0.299408 27.364711 24.797731 48.669220 -179.979378 80.085532 178.499809 0.000000 0.000000 0.000000 
0.204497 45.728554 6.682446 0.000000 0.000000 0.000000 -88.362287 -4.886702 -0.595917 -6.911211 19.852459 15.905943 7.334493 4.173489 3.993632 13.084914 29.823714 -25.772633 -7.489310 0.435356 1.950971 0.000000 0.000000 0.000000 -89.593927 -2.859260 0.199502 -4.782860 -15.411538 -15.853965 15.709877 -1.010217 -7.542893 26.689905 -34.138624 35.167783 -12.737750 1.481673 -2.041700 0.000000 0.000000 0.000000 -87.565709 -6.488796 -3.135134 2.522535 -1.824549 0.587774 -2.758857 -1.511494 0.262034 0.563075 1.586647 -0.444243 0.000000 0.000000 0.000000 -2.317967 -1.778043 0.172015 -10.990971 -2.805981 -0.780653 15.663688 -0.732570 3.245932 0.000000 0.000000 0.000000 -0.588305 -1.747381 0.476453 0.811807 -0.005594 -4.677316 0.060098 0.912521 -2.545156 38.238551 -28.803871 -54.172781 -121.121015 -88.995562 -119.880147 0.000000 0.000000 0.000000 -0.609655 -1.424706 -0.197796 0.659545 -4.168839 13.194261 2.552754 4.054302 0.721265 24.131617 25.274806 52.084472 -178.875223 81.535779 177.272465 0.000000 0.000000 0.000000 
0.196590 45.776100 6.749950 0.000000 0.000000 0.000000 -88.137089 -5.141096 -0.744791 -7.018818 19.345375 16.079015 7.498200 4.073804 3.876309 13.029162 29.621984 -25.272228 -7.464839 0.423348 1.832117 0.000000 0.000000 0.000000 -89.069061 -2.922547 0.205756 -5.530363 -15.315886 -15.856076 15.773193 -1.214610 -7.589470 27.171117 -34.162499 35.271520 -13.143318 1.528327 -2.086433 0.000000 0.000000 0.000000 -87.212677 -6.712473 -3.212331 2.367458 -1.855443 0.648512 -2.898593 -1.543048 0.036269 0.344999 1.434938 -0.434734 0.000000 0.000000 0.000000 -2.304257 -1.829129 0.009166 -11.133739 -2.822798 -0.606334 15.569432 -1.016768 3.181854 0.000000 0.000000 0.000000 -0.825950 -1.756798 0.265247 0.886993 -1.083795 -4.056089 0.056651 1.922009 -3.093409 39.235557 -29.505956 -52.669047 -127.168314 -89.176944 -125.956857 0.000000 0.000000 0.000000 -0.733562 -1.431383 -0.336188 0.754646 -4.885784 13.195819 2.370630 3.677442 0.503820 19.157465 24.919600 56.999605 -178.100557 83.688354 176.381234 0.000000 0.000000 0.000000 
0.246307 45.796616 6.772346 0.000000 0.000000 0.000000 -87.856532 -5.646239 -0.933844 -6.978536 18.480943 15.972633 7.797567 3.801243 3.865843 12.840611 29.470600 -24.654304 -7.440368 0.410971 1.679740 0.000000 0.000000 0.000000 -88.686106 -3.187738 0.247488 -6.575581 -15.347216 -16.007195 15.948449 -1.481196 -7.711263 27.023054 -34.424085 34.997398 -13.253689 1.564196 -2.139739 0.000000 0.000000 0.000000 -86.831997 -6.964173 -3.170274 2.296747 -1.873993 0.638350 -2.994246 -1.513287 -0.153385 0.249143 1.321255 -0.455146 0.000000 0.000000 0.000000 -2.225650 -1.861066 -0.124489 -11.167968 -2.877017 -0.527296 15.563843 -1.212427 3.032990 0.000000 0.000000 0.000000 -1.106501 -1.733868 0.086823 0.957207 -2.120228 -3.658368 -0.184784 2.956043 -3.536414 40.329412 -30.040227 -50.889305 -145.914547 -89.320733 -144.773892 0.000000 0.000000 0.000000 -0.868822 -1.418698 -0.431674 0.878644 -5.532089 13.329544 2.074600 3.633190 -0.019428 13.377847 23.562925 62.275739 -177.900528 86.464813 176.088274 0.000000 0.000000 0.000000 
0.329732 45.794800 6.739823 0.000000 0.000000 0.000000 -87.527870 -6.274566 -0.998657 -6.965490 17.387952 15.613177 8.208815 3.391025 3.981692 12.723175 29.350972 -24.194653 -7.513202 0.404302 1.514058 0.000000 0.000000 0.000000 -88.464016 -3.618261 0.367810 -7.776246 -15.380761 -16.392097 16.187485 -1.789647 -7.883983 26.223494 -34.904903 34.342502 -12.947500 1.569098 -2.174769 0.000000 0.000000 0.000000 -86.453925 -7.202337 -2.969740 2.327714 -1.911345 0.505002 -2.983882 -1.420807 -0.255114 0.432454 1.151948 -0.387229 0.000000 0.000000 0.000000 -2.060821 -1.852533 -0.202785 -11.030037 -2.866683 -0.666793 15.904598 -1.333138 2.748657 0.000000 0.000000 0.000000 -1.322813 -1.683516 -0.021964 0.986722 -2.910719 -3.753796 -0.546518 3.841024 -3.650258 41.181929 -30.159117 -49.159170 -164.658499 -89.447509 -163.610843 0.000000 0.000000 0.000000 -0.975513 -1.363911 -0.462162 1.025317 -5.947980 13.689915 1.822433 4.040681 -0.665494 7.947301 21.687152 66.579400 178.408202 89.156044 179.731456 0.000000 0.000000 0.000000 
